<svg xmlns="http://www.w3.org/2000/svg" viewBox="0 0 840 200" width="840" height="200">
  <defs>
    <linearGradient id="bg" x1="0%" y1="0%" x2="100%" y2="100%">
      <stop offset="0%" stop-color="#fafaf8"/>
      <stop offset="100%" stop-color="#f5f5f0"/>
    </linearGradient>
    <linearGradient id="amber-grad" x1="0%" y1="0%" x2="100%" y2="100%">
      <stop offset="0%" stop-color="#d97706"/>
      <stop offset="100%" stop-color="#f59e0b"/>
    </linearGradient>
    <linearGradient id="amber-shimmer" x1="-100%" y1="0%" x2="0%" y2="0%">
      <stop offset="0%" stop-color="#d97706"/>
      <stop offset="50%" stop-color="#f59e0b"/>
      <stop offset="100%" stop-color="#d97706"/>

</linearGradient>
    <filter id="glow-amber" x="-50%" y="-50%" width="200%" height="200%">
      <feGaussianBlur stdDeviation="50" result="blur"/>
      <feComposite in="blur" operator="over"/>
    </filter>
    <filter id="glow-sm" x="-50%" y="-50%" width="200%" height="200%">
      <feGaussianBlur stdDeviation="8" result="blur"/>
      <feComposite in="blur" operator="over"/>
    </filter>
    <pattern id="grid" width="40" height="40" patternUnits="userSpaceOnUse">
      <path d="M 40 0 L 0 0 0 40" fill="none" stroke="#000000" stroke-opacity="0.03" stroke-width="0.5"/>
    </pattern>
  </defs>

  <!-- Background -->
  <rect width="840" height="200" fill="url(#bg)"/>
  <rect width="840" height="200" fill="url(#grid)"/>

  <!-- Ambient glow orbs -->
  <ellipse cx="180" cy="100" rx="200" ry="200" fill="#f59e0b" opacity="0.05" filter="url(#glow-amber)">

</ellipse>
  <ellipse cx="660" cy="100" rx="180" ry="180" fill="#ffaf00" opacity="0.04" filter="url(#glow-amber)">
</ellipse>

  <!-- Diamond logo -->
  <g transform="translate(420, 60)">
    <polygon points="0,-32 32,0 0,32 -32,0" fill="url(#amber-grad)" opacity="0.95">
</polygon>
    <polygon points="0,-20 20,0 0,20 -20,0" fill="#fcd34d" opacity="0.35"/>
    <circle cx="0" cy="0" r="24" fill="#f59e0b" opacity="0.1" filter="url(#glow-sm)">
</circle>
  </g>

  <!-- Title -->
  <text x="420" y="140" text-anchor="middle" font-family="'Segoe UI', Arial, Helvetica, sans-serif"
        font-size="56" font-weight="800" fill="url(#amber-shimmer)" letter-spacing="12">
    ORCH
  </text>

  <!-- Animated underline -->
  <rect x="350" y="155" width="140" height="1.5" fill="#d97706" rx="0.75" opacity="0.5">


</rect>

  <!-- Top border accent -->
  <rect x="0" y="0" width="840" height="2" fill="url(#amber-shimmer)" opacity="0.7"/>
</svg>